<?xml version="1.0" encoding="utf-8"?>
<!-- Generator: Adobe Illustrator 24.0.2, SVG Export Plug-In . SVG Version: 6.00 Build 0)  -->
<svg version="1.1" id="Layer_1" xmlns="http://www.w3.org/2000/svg" xmlns:xlink="http://www.w3.org/1999/xlink" x="0px" y="0px"
	 viewBox="0 0 256 256" style="enable-background:new 0 0 256 256;" xml:space="preserve">
<style type="text/css">
	.st0{fill:#BAEEF7;}
	.st1{fill:#212529;}
	.st2{fill:#FFDE59;}
	.st3{fill:none;}
</style>
<image style="display:none;overflow:visible;enable-background:new    ;" width="267" height="268" xlink:href="B3AB591B.png"  transform="matrix(0.9552 0 0 0.9552 550.06 164.7974)">
</image>
<g>
	<path class="st0" d="M127.7,8.3l-113,113l113.1,113.1l113.1-113.1L127.7,8.3z M62.9,121.3l64.9-64.9l64.9,64.9l-64.9,64.9
		L62.9,121.3z"/>
	<path class="st1" d="M132.8,26.3L22.4,136.6L132.8,247l110.3-110.3L132.8,26.3z M128.2,234.1l-0.4-0.4l-0.4,0.4l-96.8-96.8
		l24.1-24.1l13,13l60.7-60.7l60.2,60.2l12.5-12.5l24.1,24.1L128.2,234.1z"/>
	<path class="st2" d="M129.9,241.6L25.3,137L129.9,32.4l55.3,55.3l4.5-4.5l-59.5-59.5l-113.1,113l113.1,113.1l59.2-59.2l-4.2-4.2
		L129.9,241.6z"/>
	
		<rect x="55.9" y="63.1" transform="matrix(0.7071 -0.7071 0.7071 0.7071 -58.8682 131.9767)" class="st3" width="147.9" height="147.9"/>
</g>
</svg>
